#!OML:ASF H:\MichaelJackson\Top Level 1\Subject 1\Session 1\male.ASF
:FULLY-SPECIFIED
:DEGREES
781
root 1.58928 16.3899 18.644 -9.74978 74.2743 344.247
lowerback 1.13483 4.67013 -0.654949
upperback -0.811966 6.21225 -3.69498
thorax -1.12614 3.11541 -3.54514
lowerneck -5.38712 -6.48564 -0.537957
upperneck -2.20876 -8.55449 4.86403
head 0.457874 -4.20854 1.40632
rclavicle 1.74931e-014 -1.59028e-014
rhumerus -31.2742 48.0332 -113.074
rradius 80.002
rwrist 5.63508
rhand -24.1562 -20.2715
rfingers 7.12502
rthumb 2.32647 -770.239
lclavicle 1.74931e-014 -1.59028e-014
lhumerus -55.8578 -11.6232 94.9045
lradius 70.5819
lwrist 13.5493
lhand -21.8809 -4.63989
lfingers 7.12502
lthumb 4.5238 25.2918
rfemur -15.4955 -21.574 21.1565
rtibia 51.517
rfoot -17.5893 -30.9999
rtoes -26.0456
lfemur -35.7024 10.7483 -13.0221
ltibia 49.8312
lfoot -21.6234 19.8855
ltoes 14.1916
782
root 1.56195 16.4251 18.7269 -6.92467 71.2113 347.239
lowerback 1.10842 4.65497 -0.379799
upperback -0.72826 6.19675 -3.56839
thorax -1.01115 3.10542 -3.55875
lowerneck -5.45462 -6.31936 -0.392726
upperneck -1.88461 -8.36009 4.59432
head 0.544855 -4.11239 1.29564
rclavicle 4.27387e-014 -7.95139e-014
rhumerus -31.8993 47.9666 -113.615
rradius 79.8441
rwrist 5.3452
rhand -24.2923 -20.4379
rfingers 7.12502
rthumb 2.19506 -770.406
lclavicle 4.27387e-014 -7.95139e-014
lhumerus -55.9593 -11.6075 94.9847
lradius 70.5457
lwrist 14.154
lhand -22.4439 -4.19366
lfingers 7.12502
lthumb 3.98011 25.7489
rfemur -15.3768 -20.4284 20.8538
rtibia 50.9662
rfoot -17.3185 -29.4731
rtoes -26.7349
lfemur -34.7552 8.09737 -11.9151
ltibia 49.3533
lfoot -21.4598 18.982
ltoes 12.5952
783
root 1.54173 16.4571 18.8105 -5.04697 68.176 349.28
lowerback 1.08212 4.63776 -0.0774816
upperback -0.64957 6.17863 -3.43708
thorax -0.899314 3.09439 -3.58294
lowerneck -5.52998 -6.15386 -0.244542
upperneck -1.54472 -8.16614 4.33372
head 0.639328 -4.01595 1.18747
rclavicle -7.55382e-015 1.11319e-014
rhumerus -32.5288 47.9009 -114.123
rradius 79.6484
rwrist 5.07154
rhand -24.3334 -20.6016
rfingers 7.12502
rthumb 2.15538 -770.57
lclavicle -7.55382e-015 1.11319e-014
lhumerus -56.0845 -11.5876 95.0515
lradius 70.5336
lwrist 14.7189
lhand -22.9246 -3.75314
lfingers 7.12502
lthumb 3.5159 26.1976
rfemur -15.2055 -19.3933 20.5897
rtibia 50.3825
rfoot -17.2143 -27.9383
rtoes -27.2304
lfemur -33.9398 5.44721 -10.9117
ltibia 49.0301
lfoot -21.4386 17.8625
ltoes 11.4267
784
root 1.52757 16.4852 18.8953 -3.71138 65.1972 350.736
lowerback 1.03327 4.61796 0.243473
upperback -0.586362 6.15713 -3.30442
thorax -0.789324 3.08197 -3.61502
lowerneck -5.6072 -5.99207 -0.0966929
upperneck -1.2157 -7.97521 4.08931
head 0.732599 -3.92076 1.08504
rclavicle -2.36554e-014 -6.36111e-015
rhumerus -33.1508 47.8139 -114.588
rradius 79.4208
rwrist 4.83089
rhand -24.3005 -20.7681
rfingers 7.12502
rthumb 2.18715 -770.737
lclavicle -2.36554e-014 -6.36111e-015
lhumerus -56.2244 -11.5531 95.0962
lradius 70.5435
lwrist 15.2306
lhand -23.2793 -3.3342
lfingers 7.12502
lthumb 3.1734 26.6219
rfemur -15.0316 -18.4641 20.378
rtibia 49.7789
rfoot -17.2737 -26.4263
rtoes -27.5215
lfemur -33.3244 2.86411 -10.0267
ltibia 48.8823
lfoot -21.511 16.4835
ltoes 10.6704
785
root 1.51824 16.5089 18.9817 -2.67731 62.2886 351.818
lowerback 0.942677 4.59689 0.569618
upperback -0.546254 6.13361 -3.1721
thorax -0.67945 3.06884 -3.64802
lowerneck -5.68039 -5.8357 0.0466325
upperneck -0.921863 -7.78855 3.86576
head 0.816457 -3.82773 0.990877
rclavicle -8.44835e-015 1.74931e-014
rhumerus -33.7516 47.6912 -115.002
rradius 79.1657
rwrist 4.63468
rhand -24.2149 -20.945
rfingers 7.12502
rthumb 2.26979 -770.913
lclavicle -8.44835e-015 1.74931e-014
lhumerus -56.3639 -11.4893 95.1099
lradius 70.5643
lwrist 15.6832
lhand -23.4728 -2.9528
lfingers 7.12502
lthumb 2.98652 27.006
rfemur -14.9017 -17.6181 20.2256
rtibia 49.1753
rfoot -17.4814 -24.9648
rtoes -27.6164
lfemur -32.9625 0.432324 -9.26479
ltibia 48.9216
lfoot -21.62 14.8327
ltoes 10.2513
786
root 1.51224 16.5279 19.0703 -1.78198 59.4554 352.651
lowerback 0.78258 4.57702 0.883881
upperback -0.538131 6.11076 -3.04162
thorax -0.564755 3.05633 -3.6721
lowerneck -5.74467 -5.686 0.180707
upperneck -0.682644 -7.60707 3.66676
head 0.884222 -3.73753 0.907144
rclavicle 3.22031e-014 -2.70347e-014
rhumerus -34.3161 47.526 -115.354
rradius 78.8855
rwrist 4.48543
rhand -24.0943 -21.143
rfingers 7.12502
rthumb 2.38631 -771.109
lclavicle 3.22031e-014 -2.70347e-014
lhumerus -56.4857 -11.3823 95.0837
lradius 70.5777
lwrist 16.0785
lhand -23.481 -2.62423
lfingers 7.12502
lthumb 2.97861 27.3347
rfemur -14.8728 -16.8204 20.1414
rtibia 48.5954
rfoot -17.8143 -23.581
rtoes -27.5319
lfemur -32.9052 -1.75557 -8.62081
ltibia 49.1479
lfoot -21.7077 12.9266
ltoes 10.0611
787
root 1.50809 16.5427 19.1613 -0.915772 56.6939 353.317
lowerback 0.530116 4.56191 1.166
upperback -0.568454 6.09251 -2.9138
thorax -0.440813 3.04637 -3.67524
lowerneck -5.7965 -5.54306 0.300261
upperneck -0.510504 -7.4305 3.49562
head 0.931506 -3.65019 0.835847
rclavicle 4.13472e-014 9.54166e-015
rhumerus -34.8299 47.3202 -115.639
rradius 78.5802
rwrist 4.37534
rhand -23.9525 -21.375
rfingers 7.12502
rthumb 2.52322 -771.34
lclavicle 4.13472e-014 9.54166e-015
lhumerus -56.5748 -11.2219 95.0125
lradius 70.5646
lwrist 16.4336
lhand -23.2979 -2.34927
lfingers 7.12502
lthumb 3.15536 27.6071
rfemur -14.9903 -16.0285 20.1286
rtibia 48.0578
rfoot -18.2434 -22.3006
rtoes -27.2904
lfemur -33.1815 -3.61509 -8.08232
ltibia 49.5453
lfoot -21.731 10.8049
ltoes 9.99974
788
root 1.50455 16.5536 19.2547 -0.013519 53.9934 353.868
lowerback 0.176489 4.55519 1.39979
upperback -0.639477 6.08303 -2.79007
thorax -0.306174 3.04102 -3.64934
lowerneck -5.83358 -5.40567 0.401812
upperneck -0.410291 -7.25719 3.35427
head 0.956338 -3.56496 0.778193
rclavicle 1.94809e-014 7.95139e-015
rhumerus -35.2806 47.0821 -115.856
rradius 78.2478
rwrist 4.28852
rhand -23.7988 -21.6557
rfingers 7.12502
rthumb 2.67166 -771.619
lclavicle 1.94809e-014 7.95139e-015
lhumerus -56.6229 -11.0047 94.8939
lradius 70.5103
lwrist 16.7817
lhand -22.9276 -2.11022
lfingers 7.12502
lthumb 3.51302 27.8406
rfemur -15.2755 -15.2027 20.1816
rtibia 47.5718
rfoot -18.7369 -21.1437
rtoes -26.9177
lfemur -33.7892 -5.08212 -7.63768
ltibia 50.0828
lfoot -21.6651 8.52805
ltoes 9.98901
789
root 1.50093 16.5613 19.3504 0.939169 51.3375 354.344
lowerback -0.257145 4.56073 1.57672
upperback -0.744262 6.08748 -2.6727
thorax -0.165738 3.0428 -3.59337
lowerneck -5.85547 -5.27235 0.485082
upperneck -0.379654 -7.08553 3.24314
head 0.959163 -3.48099 0.734261
rclavicle -4.83047e-014 1.66979e-014
rhumerus -35.6577 46.8234 -116.01
rradius 77.8849
rwrist 4.20465
rhand -23.641 -22.0016
rfingers 7.12502
rthumb 2.82402 -771.963
lclavicle -4.83047e-014 1.66979e-014
lhumerus -56.6275 -10.7363 94.729
lradius 70.4053
lwrist 17.1662
lhand -22.3796 -1.87379
lfingers 7.12502
lthumb 4.04221 28.0676
rfemur -15.7042 -14.3123 20.2793
rtibia 47.1331
rfoot -19.2641 -20.1197
rtoes -26.4377
lfemur -34.6775 -6.12501 -7.28502
ltibia 50.7166
lfoot -21.5036 6.17753
ltoes 9.96965
790
root 1.4972 16.5666 19.448 1.90348 48.7091 354.767
lowerback -0.714452 4.58032 1.70034
upperback -0.865014 6.10902 -2.56283
thorax -0.0319767 3.05322 -3.51428
lowerneck -5.86392 -5.14082 0.551138
upperneck -0.410088 -6.91308 3.16102
head 0.942674 -3.397 0.703307
rclavicle 4.23411e-014 -7.95139e-015
rhumerus -35.954 46.5587 -116.111
rradius 77.4877
rwrist 4.10552
rhand -23.4863 -22.4282
rfingers 7.12502
rthumb 2.97346 -772.387
lclavicle 4.23411e-014 -7.95139e-015
lhumerus -56.5917 -10.4277 94.523
lradius 70.2458
lwrist 17.6307
lhand -21.6738 -1.59867
lfingers 7.12502
lthumb 4.72375 28.3287
rfemur -16.1999 -13.3448 20.3887
rtibia 46.7233
rfoot -19.7989 -19.2255
rtoes -25.8708
lfemur -35.7456 -6.7523 -7.03347
ltibia 51.3955
lfoot -21.261 3.84459
ltoes 9.92115
791
root 1.49385 16.5707 19.5469 2.81287 46.101 355.15
lowerback -1.12138 4.61176 1.7835
upperback -0.979449 6.14592 -2.46144
thorax 0.07791 3.07132 -3.42533
lowerneck -5.86201 -5.00865 0.604209
upperneck -0.488342 -6.73744 3.10322
head 0.911085 -3.31165 0.682907
rclavicle 7.39479e-014 1.59028e-015
rhumerus -36.1667 46.3019 -116.171
rradius 77.0539
rwrist 3.98067
rhand -23.342 -22.9467
rfingers 7.12502
rthumb 3.11278 -772.904
lclavicle 7.39479e-014 1.59028e-015
lhumerus -56.5228 -10.095 94.2839
lradius 70.0313
lwrist 18.2101
lhand -20.8325 -1.24406
lfingers 7.12502
lthumb 5.53602 28.6636
rfemur -16.6573 -12.3117 20.4763
rtibia 46.3089
rfoot -20.3179 -18.4486
rtoes -25.2347
lfemur -36.872 -7.00809 -6.89833
ltibia 52.0639
lfoot -20.9635 1.62126
ltoes 9.85257
